<?xml version="1.0" encoding="UTF-8"?>
<!DOCTYPE svg PUBLIC "-//W3C//DTD SVG 1.1//EN" "http://www.w3.org/Graphics/SVG/1.1/DTD/svg11.dtd">
<svg xmlns="http://www.w3.org/2000/svg" version="1.1" width="1000px" height="1000px" style="shape-rendering:geometricPrecision; text-rendering:geometricPrecision; image-rendering:optimizeQuality; fill-rule:evenodd; clip-rule:evenodd" xmlns:xlink="http://www.w3.org/1999/xlink">
<g><path style="opacity:1" fill="#e2700c" d="M 497.5,45.5 C 498.496,45.4142 499.329,45.7476 500,46.5C 597.833,198.333 695.667,350.167 793.5,502C 695.291,652.919 596.958,803.752 498.5,954.5C 398.562,804.063 299.229,653.229 200.5,502C 299.38,349.736 398.38,197.57 497.5,45.5 Z M 491.5,263.5 C 492.666,423.666 492.833,583.999 492,744.5C 439.151,663.656 386.318,582.823 333.5,502C 386.047,422.402 438.713,342.902 491.5,263.5 Z"/></g>
<g><path style="opacity:0.999" fill="#e2700c" d="M 219.5,173.5 C 220.496,173.414 221.329,173.748 222,174.5C 245.5,210 269,245.5 292.5,281C 249.626,354.582 206.626,428.082 163.5,501.5C 208.635,576.465 253.968,651.298 299.5,726C 274.544,761.413 249.71,796.913 225,832.5C 154.334,722.505 84.1672,612.172 14.5,501.5C 83.3557,392.447 151.689,283.114 219.5,173.5 Z"/></g>
<g><path style="opacity:0.999" fill="#e2700c" d="M 777.5,173.5 C 779.624,174.031 781.124,175.365 782,177.5C 847.582,285.667 913.416,393.667 979.5,501.5C 911.532,611.966 843.365,722.299 775,832.5C 749.792,797.245 724.958,761.745 700.5,726C 744.367,651.101 788.367,576.267 832.5,501.5C 790.7,428.065 749.033,354.565 707.5,281C 730.973,245.212 754.306,209.378 777.5,173.5 Z"/></g>
</svg>
