<?xml version="1.0" encoding="UTF-8"?>
<!DOCTYPE svg PUBLIC "-//W3C//DTD SVG 1.1//EN" "http://www.w3.org/Graphics/SVG/1.1/DTD/svg11.dtd">
<svg xmlns="http://www.w3.org/2000/svg" version="1.1" width="1000px" height="1000px" style="shape-rendering:geometricPrecision; text-rendering:geometricPrecision; image-rendering:optimizeQuality; fill-rule:evenodd; clip-rule:evenodd" xmlns:xlink="http://www.w3.org/1999/xlink">
<g><path style="opacity:0.998" fill="#14a971" d="M 492.5,1.5 C 513.659,3.829 533.993,9.329 553.5,18C 604.731,41.2661 652.731,69.5995 697.5,103C 724.424,121.911 749.591,143.078 773,166.5C 813.164,211.779 844.497,262.779 867,319.5C 902.425,410.865 926.425,505.198 939,602.5C 957.605,755.139 899.772,867.639 765.5,940C 711.988,966.247 655.988,985.413 597.5,997.5C 597.333,891.166 597.5,784.833 598,678.5C 640.273,666.54 676.607,644.874 707,613.5C 736.326,577.481 752.993,536.148 757,489.5C 761.714,438.111 754.381,388.445 735,340.5C 689.273,229.941 609.773,155.275 496.5,116.5C 377.737,157.097 296.237,236.097 252,353.5C 230.238,412.954 227.238,473.287 243,534.5C 260.633,594.937 298.133,638.104 355.5,664C 368.128,669.431 380.962,674.264 394,678.5C 394.5,784.833 394.667,891.166 394.5,997.5C 322.916,983.694 255.916,958.194 193.5,921C 97.3508,859.238 49.3508,770.738 49.5,655.5C 56.6447,546.585 79.1447,440.918 117,338.5C 135.21,290.403 158.877,245.403 188,203.5C 203.335,182.16 220.835,162.66 240.5,145C 296.289,97.9282 356.956,57.9282 422.5,25C 445.029,14.4348 468.363,6.60151 492.5,1.5 Z"/></g>
<g><path style="opacity:0.998" fill="#14a971" d="M 468.5,246.5 C 542.392,240.531 599.225,268.531 639,330.5C 665.441,380.409 668.441,431.742 648,484.5C 613.623,554.163 557.457,588.33 479.5,587C 416.861,581.112 370.028,550.946 339,496.5C 320.472,458.612 315.472,418.945 324,377.5C 340.106,317.39 377.273,276.224 435.5,254C 446.493,250.843 457.493,248.343 468.5,246.5 Z"/></g>
</svg>
