<?xml version="1.0" encoding="UTF-8"?>
<!DOCTYPE svg PUBLIC "-//W3C//DTD SVG 1.1//EN" "http://www.w3.org/Graphics/SVG/1.1/DTD/svg11.dtd">
<svg xmlns="http://www.w3.org/2000/svg" version="1.1" width="1000px" height="1000px" style="shape-rendering:geometricPrecision; text-rendering:geometricPrecision; image-rendering:optimizeQuality; fill-rule:evenodd; clip-rule:evenodd" xmlns:xlink="http://www.w3.org/1999/xlink">
<g><path style="opacity:0.996" fill="#6a4790" d="M 519.5,4.5 C 524.454,5.4726 529.121,7.30593 533.5,10C 582.167,36.3333 630.833,62.6667 679.5,89C 609.725,95.5927 544.725,116.593 484.5,152C 434.286,183.214 393.786,224.047 363,274.5C 360.466,277.893 358.799,281.559 358,285.5C 424.514,233.994 498.681,197.494 580.5,176C 685.658,152.015 786.658,163.682 883.5,211C 908.06,222.857 931.56,236.357 954,251.5C 954.667,323.5 954.667,395.5 954,467.5C 922.555,434.04 888.722,403.54 852.5,376C 808.487,342.995 759.821,318.995 706.5,304C 673.343,295.431 639.676,292.431 605.5,295C 474.002,296.247 385.168,358.08 339,480.5C 327.368,514.028 319.035,548.361 314,583.5C 267.778,486.72 255.111,385.72 276,280.5C 302.685,184.901 356.518,108.734 437.5,52C 463.423,33.867 490.757,18.0337 519.5,4.5 Z"/></g>
<g><path style="opacity:0.994" fill="#6a4790" d="M 268.5,153.5 C 269.573,154.251 269.74,155.251 269,156.5C 207.754,266.464 193.088,382.464 225,504.5C 227.27,512.062 229.103,519.396 230.5,526.5C 140.899,479.371 92.3995,405.038 85,303.5C 84.3333,289.167 84.3333,274.833 85,260.5C 146.476,225.185 207.642,189.519 268.5,153.5 Z"/></g>
<g><path style="opacity:0.995" fill="#6a4790" d="M 418.5,395.5 C 418.56,394.957 418.893,394.624 419.5,394.5C 476.625,418.702 534.958,421.868 594.5,404C 604.209,401.367 613.709,398.2 623,394.5C 617.235,410.471 612.235,426.805 608,443.5C 597.915,495.071 603.415,544.904 624.5,593C 607.204,587.353 589.537,582.686 571.5,579C 538.506,573.049 505.506,573.049 472.5,579C 454.243,583.063 436.243,587.73 418.5,593C 438.366,546.819 443.533,498.986 434,449.5C 430.517,430.899 425.35,412.899 418.5,395.5 Z"/></g>
<g><path style="opacity:0.996" fill="#6a4790" d="M 724.5,408.5 C 770.032,503.725 783.199,603.392 764,707.5C 734.475,814.455 672.642,896.955 578.5,955C 558.657,967.339 538.157,978.506 517,988.5C 464.42,960.127 411.92,931.627 359.5,903C 430.204,896.587 495.87,875.253 556.5,839C 608.984,805.035 650.318,761.202 680.5,707.5C 622.462,751.692 558.462,785.192 488.5,808C 371.998,842.894 259.331,833.227 150.5,779C 128.244,767.538 106.577,755.038 85.5,741.5C 84.3334,669.169 84.1667,596.836 85,524.5C 129.593,572.788 179.76,613.955 235.5,648C 334.378,703.995 437.711,713.661 545.5,677C 601.299,655.198 644.132,618.365 674,566.5C 690.442,537.511 702.776,506.844 711,474.5C 716.591,452.712 721.091,430.712 724.5,408.5 Z"/></g>
<g><path style="opacity:0.994" fill="#6a4790" d="M 808.5,465.5 C 895.26,511.269 943.427,583.269 953,681.5C 954.414,698.479 954.747,715.479 954,732.5C 892.915,767.96 831.748,803.293 770.5,838.5C 770.167,838.167 769.833,837.833 769.5,837.5C 834.33,719.022 847.33,595.022 808.5,465.5 Z"/></g>
</svg>
