<?xml version="1.0" encoding="UTF-8"?>
<!DOCTYPE svg PUBLIC "-//W3C//DTD SVG 1.1//EN" "http://www.w3.org/Graphics/SVG/1.1/DTD/svg11.dtd">
<svg xmlns="http://www.w3.org/2000/svg" version="1.1" width="1000px" height="1000px" style="shape-rendering:geometricPrecision; text-rendering:geometricPrecision; image-rendering:optimizeQuality; fill-rule:evenodd; clip-rule:evenodd" xmlns:xlink="http://www.w3.org/1999/xlink">
<g><path style="opacity:0.995" fill="#cc202b" d="M 488.5,46.5 C 489.499,156.332 489.833,266.332 489.5,376.5C 442.403,380.724 401.403,398.558 366.5,430C 305.743,487.452 284.076,557.285 301.5,639.5C 262.294,656.965 222.794,673.965 183,690.5C 172.531,657.559 167.365,623.726 167.5,589C 168.026,486.97 206.026,401.97 281.5,334C 313.17,305.318 349.17,283.485 389.5,268.5C 422.893,194.647 455.893,120.647 488.5,46.5 Z"/></g>
<g><path style="opacity:0.997" fill="#cc202b" d="M 582.5,255.5 C 641.298,268.062 692.631,294.562 736.5,335C 819.258,411.55 856.758,506.383 849,619.5C 892.91,690.352 936.243,761.352 979,832.5C 887.667,779.833 796.333,727.167 705,674.5C 727.332,617.115 726.999,559.782 704,502.5C 678.18,449.011 637.847,411.011 583,388.5C 582.5,344.168 582.333,299.835 582.5,255.5 Z"/></g>
<g><path style="opacity:0.998" fill="#cc202b" d="M 504.5,451.5 C 558.368,452.012 599.535,475.012 628,520.5C 648.244,559.295 650.91,599.295 636,640.5C 607.381,700.905 559.548,729.072 492.5,725C 445.844,717.936 410.678,694.102 387,653.5C 365.774,608.82 366.44,564.487 389,520.5C 415.482,477.344 453.982,454.344 504.5,451.5 Z"/></g>
<g><path style="opacity:0.996" fill="#cc202b" d="M 341.5,723.5 C 342.675,723.281 343.675,723.614 344.5,724.5C 392.926,781.272 454.593,806.772 529.5,801C 574.872,796.219 614.706,779.053 649,749.5C 687.395,770.947 725.562,792.78 763.5,815C 685.999,899.742 589.666,937.408 474.5,928C 425.135,923.767 379.135,909.1 336.5,884C 232.814,875.165 129.147,866.165 25.5,857C 131.038,812.724 236.371,768.224 341.5,723.5 Z"/></g>
</svg>
