<?xml version="1.0" encoding="UTF-8"?>
<!DOCTYPE svg PUBLIC "-//W3C//DTD SVG 1.1//EN" "http://www.w3.org/Graphics/SVG/1.1/DTD/svg11.dtd">
<svg xmlns="http://www.w3.org/2000/svg" version="1.1" width="1000px" height="1000px" style="shape-rendering:geometricPrecision; text-rendering:geometricPrecision; image-rendering:optimizeQuality; fill-rule:evenodd; clip-rule:evenodd" xmlns:xlink="http://www.w3.org/1999/xlink">
<g><path style="opacity:0.998" fill="#22769a" d="M 478.5,22.5 C 481.091,23.2543 482.924,24.921 484,27.5C 502.302,57.9651 520.802,88.2985 539.5,118.5C 608.435,133.463 668.435,164.963 719.5,213C 772.881,262.232 809.047,322.066 828,392.5C 865.5,424.667 903,456.833 940.5,489C 906.002,511.083 871.335,532.917 836.5,554.5C 813.735,668.701 753.402,756.868 655.5,819C 624.154,837.673 590.82,851.673 555.5,861C 530.697,894.104 505.53,926.937 480,959.5C 457.045,929.757 434.212,899.923 411.5,870C 312.64,856.001 231.14,811.168 167,735.5C 150.064,715.138 135.231,693.305 122.5,670C 183.819,718.627 252.819,733.294 329.5,714C 400.065,691.436 449.565,645.936 478,577.5C 495.214,526.38 495.881,475.046 480,423.5C 458.089,366.251 419.922,323.418 365.5,295C 310.575,270.572 254.241,266.905 196.5,284C 164.049,294.799 135.882,312.299 112,336.5C 123.212,310.083 137.546,285.416 155,262.5C 194.913,210.643 244.413,170.809 303.5,143C 337.67,127.874 373.337,118.207 410.5,114C 433.794,83.8862 456.46,53.3862 478.5,22.5 Z"/></g>
</svg>
