<?xml version="1.0" encoding="UTF-8"?>
<!DOCTYPE svg PUBLIC "-//W3C//DTD SVG 1.1//EN" "http://www.w3.org/Graphics/SVG/1.1/DTD/svg11.dtd">
<svg xmlns="http://www.w3.org/2000/svg" version="1.1" width="1000px" height="1000px" style="shape-rendering:geometricPrecision; text-rendering:geometricPrecision; image-rendering:optimizeQuality; fill-rule:evenodd; clip-rule:evenodd" xmlns:xlink="http://www.w3.org/1999/xlink">
<g><path style="opacity:0.996" fill="#cda902" d="M 19.5,164.5 C 121.479,178.376 223.812,181.876 326.5,175C 358.6,172.19 390.6,168.857 422.5,165C 395.974,218.913 369.641,272.913 343.5,327C 394.8,369.313 446.467,411.146 498.5,452.5C 550.533,411.146 602.2,369.313 653.5,327C 627.039,273.244 600.705,219.41 574.5,165.5C 575.333,165.167 576.167,164.833 577,164.5C 709.644,183.069 842.311,183.069 975,164.5C 975.833,164.833 976.667,165.167 977.5,165.5C 940.269,230.881 897.769,292.547 850,350.5C 828.521,375.947 806.688,401.114 784.5,426C 719.724,427.608 659.391,444.608 603.5,477C 587.057,487.1 572.057,499.1 558.5,513C 615.014,569.347 671.347,625.847 727.5,682.5C 652.474,758.359 576.974,833.693 501,908.5C 424.873,833.373 349.04,757.873 273.5,682C 329.167,626.333 384.833,570.667 440.5,515C 410.042,485.424 374.709,463.424 334.5,449C 294.933,435.553 254.266,427.887 212.5,426C 144.629,354.034 85.1286,275.868 34,191.5C 28.9085,182.592 24.0751,173.592 19.5,164.5 Z M 499.5,569.5 C 538.096,606.429 576.096,644.096 613.5,682.5C 576.167,720.5 538.5,758.167 500.5,795.5C 462.5,758.167 424.833,720.5 387.5,682.5C 424.854,644.812 462.188,607.146 499.5,569.5 Z"/></g>
</svg>
