<svg width="24" height="24" viewBox="0 0 24 24" fill="none" xmlns="http://www.w3.org/2000/svg">
<path d="M11.5917 4.02379C11.7105 4.07134 11.7817 4.16639 11.8055 4.28525C11.8531 4.57051 11.9006 4.85583 11.9243 5.16486C11.9719 5.66406 11.972 6.1632 12.0195 6.66241C12.0195 6.9239 11.9482 7.13786 11.8293 7.35181C11.6154 7.68461 11.3301 7.99367 11.0448 8.27893C10.4981 8.82568 9.92766 9.34864 9.38091 9.89539C9.09565 10.1806 8.81033 10.5134 8.57261 10.8224C8.42998 10.9888 8.33488 11.2028 8.26357 11.4167C8.16848 11.6307 8.21597 11.8208 8.3586 12.011C8.50123 12.2487 8.7153 12.4152 8.92924 12.5816C9.49976 12.9857 10.1416 13.2947 10.8309 13.4611C11.0924 13.5324 11.3539 13.4611 11.5679 13.2947C11.8769 13.057 12.0909 12.7717 12.1859 12.3914C12.2335 12.2012 12.1859 12.0111 12.0908 11.8447C11.9957 11.702 11.8531 11.607 11.6867 11.6307C11.449 11.6545 11.2351 11.702 10.9974 11.7496C10.8785 11.7496 10.7834 11.7496 10.6645 11.7021C10.4981 11.6307 10.3555 11.5118 10.2367 11.3692C10.1178 11.2028 10.1178 11.0839 10.2367 10.9175C10.5219 10.4897 10.8547 10.1093 11.2588 9.80028C11.3777 9.70519 11.4965 9.65766 11.6391 9.58634C11.7817 9.51503 11.9007 9.53882 12.0433 9.61014C12.1859 9.70522 12.3286 9.80032 12.4712 9.91918C12.9942 10.3946 13.5171 10.9176 13.8736 11.5356C13.9687 11.702 14.0401 11.8922 14.1114 12.0586C14.159 12.1537 14.159 12.2725 14.1114 12.3914C14.0401 12.5578 13.9687 12.748 13.8736 12.9144C13.5171 13.5562 13.0654 14.103 12.5424 14.6022C12.1145 15.0063 11.5915 15.1489 11.021 15.0776C10.0939 14.9825 9.26199 14.6735 8.42999 14.2931C7.78815 13.9841 7.19389 13.6275 6.67091 13.1521C6.40942 12.9144 6.17164 12.6766 6.00524 12.3914C5.88638 12.2012 5.81512 11.9873 5.76758 11.7734V11.488C5.86266 10.9888 6.17167 10.6085 6.4807 10.2519C6.74219 9.99046 6.97994 9.70523 7.2652 9.46751C8.23984 8.56419 9.14312 7.61328 9.90382 6.51978C10.4981 5.71155 11.0449 4.87955 11.5441 4H11.6867L11.5917 4.02379Z" fill="url(#paint0_linear_3057_287130)"/>
<path d="M11.8775 19.9524C11.6873 19.9049 11.616 19.7622 11.5685 19.5958C11.4734 19.263 11.3783 18.9064 11.307 18.5736C11.2357 18.1933 11.2356 17.8129 11.402 17.4564C11.4971 17.2187 11.6873 17.0047 11.8537 16.8146C12.2816 16.3391 12.7571 15.9112 13.2325 15.5071C13.9456 14.889 14.6349 14.271 15.1816 13.4866C15.348 13.2488 15.5145 12.9874 15.6571 12.7496C15.776 12.5832 15.7522 12.393 15.6571 12.2029C15.4432 11.7512 15.158 11.3233 14.8727 10.9192C14.5162 10.3962 14.0645 9.94458 13.6366 9.46914C13.4939 9.30274 13.3275 9.13629 13.1849 8.96989C13.1374 8.89857 13.0898 8.82727 13.0423 8.75595C12.971 8.63709 13.0423 8.49447 13.1611 8.4707C13.2562 8.4707 13.3513 8.4707 13.4464 8.4707C13.6365 8.54202 13.8267 8.61335 13.9931 8.70843C14.9677 9.27895 15.9186 9.9208 16.7507 10.729C17.0121 10.9905 17.2499 11.2757 17.4876 11.5848C17.6777 11.7987 17.7965 12.0602 17.8678 12.3455V12.5832C17.749 13.0111 17.5114 13.3677 17.2499 13.7005C17.0597 13.9382 16.8694 14.1521 16.6793 14.3661C16.0374 15.103 15.3956 15.8161 14.7776 16.553C13.8505 17.6941 12.9234 18.8589 11.9963 20H11.8537L11.8775 19.9524Z" fill="url(#paint1_linear_3057_287130)"/>
<defs>
<linearGradient id="paint0_linear_3057_287130" x1="7.69308" y1="6.66242" x2="13.0179" y2="14.2694" gradientUnits="userSpaceOnUse">
<stop offset="0.14" stop-color="#E5362C"/>
<stop offset="0.38" stop-color="#EC6812"/>
<stop offset="0.54" stop-color="#E4BF00"/>
<stop offset="0.68" stop-color="#22AC39"/>
<stop offset="0.83" stop-color="#056FB8"/>
</linearGradient>
<linearGradient id="paint1_linear_3057_287130" x1="10.7127" y1="10.1585" x2="15.7523" y2="17.3374" gradientUnits="userSpaceOnUse">
<stop offset="0.14" stop-color="#E5362C"/>
<stop offset="0.38" stop-color="#EC6812"/>
<stop offset="0.54" stop-color="#E4BF00"/>
<stop offset="0.68" stop-color="#22AC39"/>
<stop offset="0.83" stop-color="#056FB8"/>
</linearGradient>
</defs>
</svg>
